<svg width="512" height="512" viewBox="0 0 512 512" fill="none" xmlns="http://www.w3.org/2000/svg">
<g clip-path="url(#clip0_3_5)">
<path d="M386.095 61.3774C410.471 59.4687 431.912 64.7797 451.267 78.9525C497.041 112.471 495.452 181.65 451.208 214.28C441.088 221.744 437.436 228.75 437.988 242.119C441.701 332.021 382.791 407.656 295.304 426.9C264.847 433.6 234.418 432.174 204.435 423.713C198.693 422.093 194.041 422.306 188.657 425.059C168.438 435.398 148.687 446.534 125.527 450.087C80.1357 457.052 35.0146 423.446 28.9451 377.619C24.9321 347.32 33.535 321.402 57.1608 302.553C75.9892 288.708 75.0413 276.175 76.8195 254.453C75.4256 185.765 112.867 122.52 178.396 92.6695C224.262 71.7758 270.864 67.7973 318.935 83.0674C326.632 85.5128 327.378 83.7558 331.544 81.9373C349.134 74.2603 365.63 63.6753 386.095 61.3774ZM306.337 385.904C363.08 365.707 406.734 309.688 400.992 237.488C397.152 189.2 373.588 153.324 332.325 128.672C327.298 125.669 322.792 125.818 317.475 128.103C288.748 140.444 260.833 154.402 232.96 168.567C203.987 183.292 186.837 206.142 179.31 237.277C173.315 262.075 176.594 285.416 192.26 305.445C216.398 336.305 242.533 346.831 278.813 333.524C303.148 324.598 320.405 308.476 335.209 288.275C347.602 271.365 347.902 256.414 336.105 238.987C332.048 232.993 328.614 232.313 322.719 236.372C306.596 247.473 290.25 258.257 273.799 268.865C265.069 274.494 254.334 272.364 248.837 264.55C242.704 255.833 243.905 245.411 253.099 239.056C272.806 225.434 292.629 211.913 313.075 199.456C326.231 191.441 340.207 193.171 352.593 202.262C373.197 217.385 385.906 253.741 379.648 278.761C372.78 306.222 354.339 325.909 334.249 343.935C315.324 360.916 290.714 368.727 269.214 381.639C262.982 385.382 256.524 388.746 248.746 393.075C269.359 395.072 287.349 391.926 306.337 385.904ZM160.116 186.722C173.641 163.387 193.664 147.402 217.365 135.425C232.079 127.989 246.58 120.129 262.689 111.664C259.231 111.394 257.54 111.11 255.856 111.152C185.714 112.891 110.374 165.132 114.37 253.661C116.656 304.311 137.277 345.541 180.932 373.45C193.619 381.561 201.055 380.377 211.849 369.024C211.457 368.605 211.133 368.068 210.659 367.786C208.655 366.594 206.602 365.485 204.573 364.334C171.556 345.6 150.082 318.13 142.068 280.684C134.935 247.356 144.696 217.099 160.116 186.722ZM111.39 413.558C126.579 413.786 140.478 409.916 154.385 400.37C125.476 379.874 105.442 353.49 91.667 322.386C71.0286 333.292 61.6428 353.622 65.6073 375.984C68.6025 392.879 89.649 414.505 111.39 413.558ZM423.067 176.343C424.495 179.134 425.071 182.518 429.026 184.446C444.568 173.885 449.292 158.303 447.889 140.49C446.336 120.78 433.99 108.592 416.834 101.487C400.036 94.5293 383.554 96.4324 367.158 106.934C391.634 125.817 410.171 148.045 423.067 176.343Z" fill="black"/>
</g>
<defs>
<clipPath id="clip0_3_5">
<rect width="512" height="512" fill="white"/>
</clipPath>
</defs>
</svg>
