<svg width="65" height="64" viewBox="0 0 65 64" fill="none" xmlns="http://www.w3.org/2000/svg">
<path d="M32.5003 5.43994C17.6045 5.43994 5.41699 17.4133 5.41699 32.16C5.41699 45.4933 15.3295 56.56 28.2753 58.56V39.8933H21.3962V32.16H28.2753V26.2666C28.2753 19.5733 32.3107 15.8933 38.5128 15.8933C41.4649 15.8933 44.5524 16.3999 44.5524 16.3999V22.9866H41.1399C37.7816 22.9866 36.7253 25.0399 36.7253 27.1467V32.16H44.2545L43.0357 39.8933H36.7253V58.56C43.1072 57.5675 48.9188 54.3613 53.1105 49.52C57.3022 44.6789 59.5983 38.5216 59.5837 32.16C59.5837 17.4133 47.3962 5.43994 32.5003 5.43994Z" fill="white"/>
</svg>
