<svg width="59" height="58" viewBox="0 0 59 58" fill="none" xmlns="http://www.w3.org/2000/svg">
<path fill-rule="evenodd" clip-rule="evenodd" d="M29.5 43.5C37.6462 43.5 44.25 37.0081 44.25 29C44.25 20.9919 37.6462 14.5 29.5 14.5C21.3538 14.5 14.75 20.9919 14.75 29C14.75 37.0081 21.3538 43.5 29.5 43.5ZM29.5 38.6667C34.9307 38.6667 39.3333 34.3387 39.3333 29C39.3333 23.6612 34.9307 19.3333 29.5 19.3333C24.0692 19.3333 19.6667 23.6612 19.6667 29C19.6667 34.3387 24.0692 38.6667 29.5 38.6667Z" fill="white"/>
<path d="M44.2503 12.0833C42.8926 12.0833 41.792 13.1652 41.792 14.4999C41.792 15.8346 42.8926 16.9166 44.2503 16.9166C45.6081 16.9166 46.7087 15.8346 46.7087 14.4999C46.7087 13.1652 45.6081 12.0833 44.2503 12.0833Z" fill="white"/>
<path fill-rule="evenodd" clip-rule="evenodd" d="M4.06566 10.3339C2.45801 13.4356 2.45801 17.496 2.45801 25.6168V32.3834C2.45801 40.5041 2.45801 44.5646 4.06566 47.6662C5.47979 50.3946 7.73625 52.6129 10.5117 54.0029C13.6669 55.5834 17.7972 55.5834 26.058 55.5834H32.9413C41.2021 55.5834 45.3326 55.5834 48.4876 54.0029C51.2631 52.6129 53.5196 50.3946 54.9336 47.6662C56.5413 44.5646 56.5413 40.5041 56.5413 32.3834V25.6168C56.5413 17.496 56.5413 13.4356 54.9336 10.3339C53.5196 7.60553 51.2631 5.38732 48.4876 3.99715C45.3326 2.41675 41.2021 2.41675 32.9413 2.41675H26.058C17.7972 2.41675 13.6669 2.41675 10.5117 3.99715C7.73625 5.38732 5.47979 7.60553 4.06566 10.3339ZM32.9413 7.25008H26.058C21.8465 7.25008 18.9835 7.25385 16.7706 7.43157C14.6151 7.6047 13.5127 7.91851 12.7438 8.30368C10.8935 9.23047 9.38921 10.7093 8.44643 12.5282C8.05463 13.2841 7.73541 14.3677 7.5593 16.4868C7.37851 18.6622 7.37467 21.4766 7.37467 25.6168V32.3834C7.37467 36.5237 7.37851 39.3379 7.5593 41.5133C7.73541 43.6325 8.05463 44.7162 8.44643 45.4721C9.38921 47.2909 10.8935 48.7696 12.7438 49.6964C13.5127 50.0816 14.6151 50.3956 16.7706 50.5686C18.9835 50.7462 21.8465 50.7501 26.058 50.7501H32.9413C37.153 50.7501 40.0157 50.7462 42.2287 50.5686C44.3844 50.3956 45.4867 50.0816 46.2557 49.6964C48.1058 48.7696 49.6101 47.2909 50.5528 45.4721C50.9447 44.7162 51.264 43.6325 51.4401 41.5133C51.6207 39.3379 51.6247 36.5237 51.6247 32.3834V25.6168C51.6247 21.4766 51.6207 18.6622 51.4401 16.4868C51.264 14.3677 50.9447 13.2841 50.5528 12.5282C49.6101 10.7093 48.1058 9.23047 46.2557 8.30368C45.4867 7.91851 44.3844 7.6047 42.2287 7.43157C40.0157 7.25385 37.153 7.25008 32.9413 7.25008Z" fill="white"/>
</svg>
