<svg width="56" height="56" viewBox="0 0 56 56" fill="none" xmlns="http://www.w3.org/2000/svg">
<path d="M51.52 -0.000104297H4.795C4.19275 -0.0283143 3.59083 0.0625116 3.02372 0.267227C2.45662 0.471942 1.93547 0.786485 1.49006 1.19284C1.04468 1.59922 0.683796 2.08946 0.428121 2.63546C0.172446 3.1815 0.02695 3.77258 0 4.3749V51.205C0.03528 52.4653 0.551809 53.6648 1.4435 54.5562C2.3352 55.448 3.53444 55.9646 4.795 56H51.52C52.7453 55.9454 53.9007 55.4127 54.7383 54.5163C55.5758 53.62 56.0287 52.4314 56 51.205V4.3749C56.0102 3.78865 55.9003 3.20656 55.6773 2.66427C55.4544 2.12202 55.1229 1.631 54.7033 1.22133C54.284 0.811685 53.7852 0.492067 53.2378 0.282032C52.6904 0.0719966 52.1059 -0.0240093 51.52 -0.000104297ZM17.5 46.69H9.345V21.735H17.5V46.69ZM13.615 17.9549C13.0459 17.9747 12.4789 17.8767 11.9496 17.6669C11.4202 17.4571 10.9399 17.1401 10.539 16.7358C10.138 16.3315 9.82489 15.8487 9.61944 15.3176C9.41395 14.7866 9.32054 14.2188 9.345 13.6499C9.31984 13.0748 9.41514 12.5009 9.62483 11.9649C9.83451 11.4288 10.1539 10.9425 10.5625 10.5372C10.9712 10.1318 11.4601 9.81638 11.9978 9.61107C12.5355 9.40572 13.1102 9.31507 13.685 9.3449C14.2541 9.32509 14.8211 9.42312 15.3504 9.63291C15.8798 9.8427 16.3601 10.1597 16.761 10.564C17.162 10.9683 17.4751 11.4511 17.6806 11.9821C17.8861 12.5132 17.9795 13.081 17.955 13.6499C17.9802 14.2249 17.8849 14.7989 17.6752 15.3349C17.4655 15.871 17.1461 16.3573 16.7375 16.7626C16.3288 17.168 15.84 17.4834 15.3022 17.6887C14.7645 17.8941 14.1898 17.9847 13.615 17.9549ZM46.69 46.69H38.5V33.04C38.5 29.785 37.345 27.545 34.44 27.545C33.5377 27.5527 32.6595 27.8393 31.9267 28.3657C31.1934 28.8921 30.6411 29.6324 30.345 30.485C30.1175 31.1241 30.0223 31.8027 30.065 32.48V46.69H22.015V21.735H30.065V25.235C30.7808 23.92 31.8458 22.8288 33.1429 22.0812C34.44 21.3339 35.9184 20.9597 37.415 20.9999C42.7 20.9999 46.69 24.5 46.69 31.955V46.69Z" fill="white"/>
</svg>
