<svg width="719" height="214" viewBox="0 0 719 214" fill="none" xmlns="http://www.w3.org/2000/svg">
<path d="M341.358 126.965V130.322H282.26V126.965H301.153C296.625 124.675 293.007 121.318 290.301 116.894C287.647 112.47 286.32 107.474 286.32 101.905C286.32 93.9421 289.078 87.3843 294.595 82.2318C300.112 77.0273 306.8 74.425 314.658 74.425C322.569 74.425 329.127 76.715 334.332 81.295L329.413 88.3212C327.279 86.4996 325.12 85.2505 322.934 84.5739C320.8 83.8452 318.302 83.4809 315.439 83.4809C309.87 83.4809 305.212 85.1464 301.465 88.4773C297.77 91.8082 295.922 96.3622 295.922 102.139C295.922 107.916 297.744 112.574 301.387 116.113C305.03 119.601 309.428 121.344 314.58 121.344C319.785 121.344 324.131 120.225 327.618 117.987V102.998H336.83V121.656C334.904 123.79 332.562 125.56 329.804 126.965H341.358ZM406.311 126.965V130.322H388.901L383.437 117.909H356.113L350.648 130.322H333.239V126.965H342.295L364.856 75.7522H374.693L397.255 126.965H406.311ZM379.689 109.4L369.775 86.9159L359.86 109.4H379.689ZM475.494 126.965V130.322H458.709V87.6966L439.66 125.56H434.508L415.537 87.6966V130.322H398.753V126.965H406.325V75.7522H420.69L437.162 110.024L453.635 75.7522H467.921V126.965H475.494ZM483.097 126.965V75.7522H492.309V126.965H499.882V130.322H475.525V126.965H483.097ZM546.999 126.965V130.322H499.846V126.965H507.417V75.7522H543.797L543.72 84.3397H516.63V99.3288H540.831V107.838H516.63V126.965H546.999ZM566.634 126.965V108.775L546.336 75.7522H556.408L571.318 100.578L586.23 75.7522H596.3L576.002 108.775V126.965H595.675V130.322H546.961V126.965H566.634ZM653.135 126.965V130.322H595.675V126.965H613.008C608.897 124.519 605.643 121.188 603.249 116.972C600.907 112.757 599.737 107.994 599.737 102.686C599.737 94.6707 602.495 87.9568 608.012 82.5441C613.581 77.1314 620.58 74.425 629.011 74.425C637.495 74.425 644.573 77.5477 650.246 83.7932L644.392 90.1948C641.789 87.6966 639.316 85.9531 636.974 84.9642C634.684 83.9754 631.978 83.4809 628.855 83.4809C623.338 83.4809 618.706 85.2765 614.959 88.8676C611.212 92.4067 609.338 96.9607 609.338 102.53C609.338 108.046 611.187 112.678 614.882 116.426C618.629 120.121 623.053 121.969 628.154 121.969C631.328 121.969 634.06 121.448 636.35 120.407C638.64 119.314 641.034 117.597 643.532 115.255L649.465 121.344C647.175 123.842 644.989 125.716 642.907 126.965H653.135ZM717.595 126.965V130.322H652.017V126.965H669.894C665.626 124.519 662.243 121.162 659.745 116.894C657.299 112.626 656.077 107.864 656.077 102.608C656.077 94.5926 658.835 87.9048 664.352 82.5441C669.869 77.1314 676.687 74.425 684.806 74.425C692.925 74.425 699.743 77.1314 705.26 82.5441C710.777 87.9048 713.535 94.5926 713.535 102.608C713.535 107.812 712.286 112.574 709.788 116.894C707.342 121.214 703.984 124.571 699.716 126.965H717.595ZM698.467 88.6334C694.772 84.7821 690.219 82.8564 684.806 82.8564C679.393 82.8564 674.813 84.7821 671.066 88.6334C667.371 92.4848 665.522 97.1689 665.522 102.686C665.522 108.151 667.371 112.809 671.066 116.66C674.813 120.511 679.393 122.437 684.806 122.437C690.219 122.437 694.772 120.511 698.467 116.66C702.214 112.809 704.088 108.151 704.088 102.686C704.088 97.1689 702.214 92.4848 698.467 88.6334Z" fill="white"/>
<path d="M196.356 0.207039C209.723 -0.840105 221.48 2.07367 232.093 9.84925C257.192 28.2385 256.321 66.1921 232.06 84.0938C226.511 88.1885 224.508 92.0327 224.811 99.3673C226.847 148.69 194.545 190.185 146.573 200.743C129.872 204.419 113.186 203.637 96.7455 198.995C93.5972 198.106 91.0464 198.223 88.0942 199.733C77.0075 205.406 66.1768 211.515 53.4777 213.464C28.5879 217.285 3.84638 198.848 0.518223 173.706C-1.68223 157.083 3.03502 142.864 15.9899 132.523C26.3142 124.927 25.7945 118.051 26.7695 106.134C26.0052 68.4498 46.5358 33.7517 82.4674 17.3748C107.618 5.9119 133.171 3.72917 159.53 12.1068C163.751 13.4484 164.16 12.4845 166.444 11.4868C176.089 7.27496 185.135 1.46773 196.356 0.207039ZM152.622 178.252C183.737 167.171 207.674 136.438 204.525 96.8265C202.419 70.3343 189.499 50.6515 166.872 37.1268C164.116 35.4793 161.645 35.5612 158.73 36.8145C142.978 43.5854 127.671 51.2429 112.387 59.0143C96.4999 67.0927 87.0961 79.6291 82.9689 96.7104C79.6817 110.315 81.4795 123.121 90.0698 134.109C103.305 151.04 117.636 156.815 137.53 149.514C150.873 144.617 160.336 135.773 168.454 124.69C175.25 115.412 175.414 107.21 168.945 97.649C166.72 94.3605 164.838 93.9874 161.605 96.2142C152.764 102.304 143.801 108.221 134.78 114.041C129.994 117.129 124.107 115.961 121.093 111.673C117.73 106.891 118.389 101.173 123.43 97.6867C134.236 90.2131 145.106 82.7951 156.317 75.9609C163.531 71.5634 171.195 72.5127 177.986 77.5004C189.284 85.7972 196.253 105.743 192.822 119.47C189.055 134.536 178.944 145.337 167.928 155.226C157.55 164.543 144.055 168.828 132.267 175.912C128.849 177.965 125.308 179.811 121.043 182.186C132.346 183.281 142.211 181.555 152.622 178.252ZM72.4442 68.9746C79.8602 56.1724 90.8398 47.4028 103.836 40.8317C111.904 36.7521 119.856 32.4397 128.689 27.7959C126.793 27.6477 125.865 27.492 124.942 27.5149C86.4805 28.4689 45.1688 57.1299 47.3599 105.699C48.6135 133.488 59.9208 156.107 83.8585 171.419C90.815 175.869 94.8923 175.219 100.811 168.991C100.596 168.761 100.419 168.466 100.159 168.312C99.0596 167.658 97.934 167.049 96.8217 166.418C78.7169 156.14 66.9422 141.069 62.5476 120.525C58.6363 102.24 63.9888 85.6405 72.4442 68.9746ZM45.726 193.423C54.0544 193.548 61.676 191.425 69.3016 186.188C53.4495 174.943 42.4642 160.468 34.9109 143.404C23.5941 149.387 18.4476 160.541 20.6215 172.809C22.2638 182.078 33.8044 193.943 45.726 193.423ZM216.629 63.2803C217.413 64.8119 217.728 66.6682 219.897 67.7258C228.419 61.932 231.01 53.3834 230.24 43.6103C229.389 32.7968 222.619 26.1103 213.212 22.2121C204.001 18.3951 194.963 19.4392 185.973 25.2006C199.394 35.5607 209.558 47.7553 216.629 63.2803Z" fill="white"/>
</svg>
