<svg width="251" height="214" viewBox="0 0 251 214" fill="none" xmlns="http://www.w3.org/2000/svg">
<path d="M196.356 0.207039C209.723 -0.840105 221.48 2.07367 232.093 9.84925C257.192 28.2385 256.321 66.1921 232.06 84.0938C226.511 88.1885 224.508 92.0327 224.811 99.3673C226.847 148.69 194.545 190.185 146.573 200.743C129.872 204.419 113.186 203.637 96.7455 198.995C93.5972 198.106 91.0464 198.223 88.0942 199.733C77.0075 205.406 66.1768 211.515 53.4777 213.464C28.5879 217.285 3.84638 198.848 0.518223 173.706C-1.68223 157.083 3.03502 142.864 15.9899 132.523C26.3142 124.927 25.7945 118.051 26.7695 106.134C26.0052 68.4498 46.5358 33.7517 82.4674 17.3748C107.618 5.9119 133.171 3.72917 159.53 12.1068C163.751 13.4484 164.16 12.4845 166.444 11.4868C176.089 7.27496 185.135 1.46773 196.356 0.207039ZM152.622 178.252C183.737 167.171 207.674 136.438 204.525 96.8265C202.419 70.3343 189.499 50.6515 166.872 37.1268C164.116 35.4793 161.645 35.5612 158.73 36.8145C142.978 43.5854 127.671 51.2429 112.387 59.0143C96.4999 67.0927 87.0961 79.6291 82.9689 96.7104C79.6817 110.315 81.4795 123.121 90.0698 134.109C103.305 151.04 117.636 156.815 137.53 149.514C150.873 144.617 160.336 135.773 168.454 124.69C175.25 115.412 175.414 107.21 168.945 97.649C166.72 94.3605 164.838 93.9874 161.605 96.2142C152.764 102.304 143.801 108.221 134.78 114.041C129.994 117.129 124.107 115.961 121.093 111.673C117.73 106.891 118.389 101.173 123.43 97.6867C134.236 90.2131 145.106 82.7951 156.317 75.9609C163.531 71.5634 171.195 72.5127 177.986 77.5004C189.284 85.7972 196.253 105.743 192.822 119.47C189.055 134.536 178.944 145.337 167.928 155.226C157.55 164.543 144.055 168.828 132.267 175.912C128.849 177.965 125.308 179.811 121.043 182.186C132.346 183.281 142.211 181.555 152.622 178.252ZM72.4442 68.9746C79.8602 56.1724 90.8397 47.4028 103.836 40.8317C111.904 36.7521 119.856 32.4397 128.689 27.7959C126.793 27.6477 125.865 27.492 124.942 27.5149C86.4805 28.4689 45.1688 57.1299 47.3599 105.699C48.6135 133.488 59.9208 156.107 83.8585 171.419C90.815 175.869 94.8924 175.219 100.811 168.991C100.596 168.761 100.419 168.466 100.159 168.312C99.0596 167.658 97.934 167.049 96.8217 166.418C78.7169 156.14 66.9422 141.069 62.5476 120.525C58.6363 102.24 63.9888 85.6406 72.4442 68.9746ZM45.726 193.423C54.0544 193.548 61.676 191.425 69.3016 186.188C53.4495 174.943 42.4642 160.468 34.9109 143.404C23.5941 149.387 18.4476 160.541 20.6215 172.809C22.2638 182.078 33.8044 193.943 45.726 193.423ZM216.629 63.2803C217.413 64.8119 217.728 66.6682 219.897 67.7258C228.419 61.932 231.01 53.3834 230.24 43.6103C229.389 32.7968 222.619 26.1103 213.212 22.2121C204.001 18.3951 194.963 19.4392 185.973 25.2006C199.394 35.5607 209.558 47.7553 216.629 63.2803Z" fill="black"/>
</svg>
